<?xml version="1.0" encoding="utf-8"?>
<!-- Generator: Adobe Illustrator 21.0.1, SVG Export Plug-In . SVG Version: 6.00 Build 0)  -->
<svg version="1.1" id="Слой_1" xmlns="http://www.w3.org/2000/svg" xmlns:xlink="http://www.w3.org/1999/xlink" x="0px" y="0px"
	 viewBox="0 0 669.5 573.1" style="enable-background:new 0 0 669.5 573.1;" xml:space="preserve">
<style type="text/css">
	.st0{fill:url(#SVGID_1_);}
	.st1{fill:url(#SVGID_2_);}
</style>
<title>Ресурс 2Я SVG лого</title>
<g id="Слой_2">
	<g id="Слой_1-2">
		<g id="Слой_2-2">
			<g id="Слой_3">
				
					<linearGradient id="SVGID_1_" gradientUnits="userSpaceOnUse" x1="0" y1="298.38" x2="406.87" y2="298.38" gradientTransform="matrix(1 0 0 -1 0 573.29)">
					<stop  offset="0" style="stop-color:#43ABFF"/>
					<stop  offset="1" style="stop-color:#5A00FF"/>
				</linearGradient>
				<path class="st0" d="M406.9,0l-0.3,357.4c-42.9,0-164.4-0.3-184.3-0.8L108.4,549.8H0l129.6-212.1c-35.1-12-62.8-31.7-83.3-58.9
					c-20.4-27.2-30.7-61.5-30.6-102.9C15.7,58.6,85.1,0,223.9,0H406.9z M212.9,277.3h103.7v-194h-82.5c-49.8,0-83.3,7.3-100.5,22
					s-25.9,39.8-25.9,75.4c0,30.4,9.6,54.1,28.7,71.1C155.4,268.8,180.9,277.3,212.9,277.3L212.9,277.3z"/>
				
					<linearGradient id="SVGID_2_" gradientUnits="userSpaceOnUse" x1="316.55" y1="148.17" x2="669.55" y2="148.17" gradientTransform="matrix(1 0 0 -1 0 573.29)">
					<stop  offset="0" style="stop-color:#03FF00"/>
					<stop  offset="1" style="stop-color:#009E01"/>
				</linearGradient>
				<path class="st1" d="M406.5,573.1c0-1.5-90-21.5-90-20l254-276h99L406.5,573.1z M406.5,573.1h-90v-176h90V573.1z"/>
			</g>
		</g>
	</g>
</g>
</svg>
