<?xml version="1.0" encoding="UTF-8"?>
<!DOCTYPE svg PUBLIC "-//W3C//DTD SVG 1.1//EN" "http://www.w3.org/Graphics/SVG/1.1/DTD/svg11.dtd">
<svg version="1.1" xmlns="http://www.w3.org/2000/svg" xmlns:xlink="http://www.w3.org/1999/xlink" x="0" y="0" width="200" height="80" viewBox="0, 0, 200, 80">
  <defs>
    <linearGradient id="Gradient_1" gradientUnits="userSpaceOnUse" x1="58.865" y1="541.76" x2="194.911" y2="541.76" gradientTransform="matrix(1, 0, 0, -1, 0, 581.29)">
      <stop offset="0" stop-color="#43ABFF"/>
      <stop offset="0.32" stop-color="#4A74FF"/>
      <stop offset="1" stop-color="#5A00FF"/>
    </linearGradient>
    <linearGradient id="Gradient_2" gradientUnits="userSpaceOnUse" x1="58.865" y1="541.881" x2="194.911" y2="541.881" gradientTransform="matrix(1, 0, 0, -1, 0, 581.29)">
      <stop offset="0" stop-color="#43ABFF"/>
      <stop offset="0.32" stop-color="#4A74FF"/>
      <stop offset="1" stop-color="#5A00FF"/>
    </linearGradient>
    <linearGradient id="Gradient_3" gradientUnits="userSpaceOnUse" x1="58.865" y1="541.784" x2="194.911" y2="541.784" gradientTransform="matrix(1, 0, 0, -1, 0, 581.29)">
      <stop offset="0" stop-color="#43ABFF"/>
      <stop offset="0.32" stop-color="#4A74FF"/>
      <stop offset="1" stop-color="#5A00FF"/>
    </linearGradient>
    <linearGradient id="Gradient_4" gradientUnits="userSpaceOnUse" x1="58.865" y1="541.785" x2="194.911" y2="541.785" gradientTransform="matrix(1, 0, 0, -1, 0, 581.29)">
      <stop offset="0" stop-color="#43ABFF"/>
      <stop offset="0.32" stop-color="#4A74FF"/>
      <stop offset="1" stop-color="#5A00FF"/>
    </linearGradient>
    <linearGradient id="Gradient_5" gradientUnits="userSpaceOnUse" x1="58.865" y1="541.784" x2="194.911" y2="541.784" gradientTransform="matrix(1, 0, 0, -1, 0, 581.29)">
      <stop offset="0" stop-color="#43ABFF"/>
      <stop offset="0.32" stop-color="#4A74FF"/>
      <stop offset="1" stop-color="#5A00FF"/>
    </linearGradient>
    <linearGradient id="Gradient_6" gradientUnits="userSpaceOnUse" x1="3.346" y1="541.779" x2="28.121" y2="541.779" gradientTransform="matrix(1, 0, 0, -1, 0, 581.29)">
      <stop offset="0" stop-color="#43ABFF"/>
      <stop offset="1" stop-color="#5A00FF"/>
    </linearGradient>
    <linearGradient id="Gradient_7" gradientUnits="userSpaceOnUse" x1="22.621" y1="532.634" x2="44.116" y2="532.634" gradientTransform="matrix(1, 0, 0, -1, 0, 581.29)">
      <stop offset="0" stop-color="#03FF00"/>
      <stop offset="1" stop-color="#009E01"/>
    </linearGradient>
  </defs>
  <g id="Layer_1">
    <g id="11">
      <path d="M66.083,56.721 C61.364,56.721 57.473,55.381 54.41,52.702 L56.852,48.3 C59.464,50.534 62.21,51.649 65.078,51.649 C66.832,51.649 68.397,51.21 69.767,50.333 C71.137,49.457 71.825,48.22 71.825,46.625 C71.825,44.683 71.113,43.349 69.694,42.631 C68.275,41.912 66.181,41.541 63.41,41.51 L61.924,41.51 L61.924,36.919 L63.55,36.919 C66.162,36.919 68.093,36.511 69.335,35.701 C70.577,34.891 71.198,33.576 71.198,31.755 C71.198,30.385 70.614,29.301 69.451,28.504 C68.287,27.706 66.844,27.31 65.121,27.31 C62.472,27.31 60,28.284 57.704,30.227 L55.506,26.257 C57.035,24.917 58.654,23.931 60.359,23.291 C62.07,22.652 64.165,22.335 66.656,22.335 C69.591,22.335 71.99,23.157 73.853,24.801 C75.716,26.445 76.648,28.51 76.648,30.994 C76.648,34.696 74.815,37.327 71.149,38.886 C75.26,40.158 77.318,42.838 77.318,46.923 C77.318,49.828 76.283,52.184 74.206,53.999 C72.136,55.82 69.426,56.727 66.083,56.721 z" fill="url(#Gradient_1)"/>
      <path d="M79.571,56.246 L91.816,22.573 L97.175,22.573 L109.42,56.246 L103.678,56.246 L100.859,48.354 L87.943,48.354 L85.124,56.246 L79.571,56.246 z M89.612,43.428 L99.129,43.428 L94.392,29.989 L89.612,43.428 z" fill="url(#Gradient_2)"/>
      <path d="M114.291,56.246 L114.291,22.768 L119.79,22.768 L119.79,36.828 L132.943,36.828 L132.943,22.768 L138.441,22.768 L138.441,56.246 L132.943,56.246 L132.943,41.991 L119.79,41.991 L119.79,56.246 L114.291,56.246 z" fill="url(#Gradient_3)"/>
      <path d="M168.29,22.768 L168.29,56.246 L162.792,56.246 L162.792,44.524 C160.18,44.524 158.262,44.506 157.05,44.476 L150.114,56.24 L143.513,56.24 L151.405,43.325 C149.268,42.594 147.581,41.394 146.333,39.738 C145.084,38.082 144.469,35.993 144.469,33.472 C144.469,26.33 148.695,22.761 157.141,22.761 L168.29,22.768 z M156.477,39.647 L162.792,39.647 L162.792,27.834 L157.768,27.834 C154.736,27.834 152.696,28.278 151.649,29.173 C150.601,30.069 150.072,31.597 150.072,33.765 C150.072,35.616 150.656,37.059 151.819,38.094 C152.976,39.129 154.529,39.647 156.477,39.647 L156.477,39.647 z" fill="url(#Gradient_4)"/>
      <path d="M182.35,56.246 L182.35,27.931 L173.551,27.931 L173.551,22.768 L196.654,22.768 L196.654,27.931 L187.898,27.931 L187.898,56.246 L182.35,56.246 z" fill="url(#Gradient_5)"/>
      <g id="Слой_3">
        <path d="M28.123,22.768 L28.105,44.53 C25.492,44.53 18.094,44.512 16.882,44.482 L9.947,56.252 L3.346,56.252 L11.238,43.337 C9.1,42.606 7.414,41.407 6.165,39.75 C4.917,38.094 4.296,36.005 4.302,33.485 C4.302,26.342 8.528,22.768 16.98,22.768 L28.123,22.768 z M16.31,39.653 L22.624,39.653 L22.624,27.84 L17.601,27.84 C14.568,27.84 12.529,28.284 11.481,29.179 C10.434,30.075 9.904,31.603 9.904,33.771 C9.904,35.622 10.489,37.065 11.652,38.1 C12.809,39.135 14.361,39.653 16.31,39.653 L16.31,39.653 z" fill="url(#Gradient_6)"/>
        <path d="M28.099,57.665 C28.099,57.573 22.618,56.356 22.618,56.447 L38.085,39.641 L44.113,39.641 L28.099,57.665 z M28.099,57.665 L22.618,57.665 L22.618,46.948 L28.099,46.948 L28.099,57.665 z" fill="url(#Gradient_7)"/>
      </g>
    </g>
  </g>
</svg>
