<?xml version="1.0" encoding="UTF-8"?>
<!DOCTYPE svg PUBLIC "-//W3C//DTD SVG 1.1//EN" "http://www.w3.org/Graphics/SVG/1.1/DTD/svg11.dtd">
<svg version="1.1" xmlns="http://www.w3.org/2000/svg" xmlns:xlink="http://www.w3.org/1999/xlink" x="0" y="0" width="200" height="200" viewBox="0, 0, 200, 200">
  <g id="Layer_1">
    <g>
      <path d="M3.585,165.519 L3.585,67.549 L25.343,42.98 L47.1,67.549 L47.1,97.55 L51.519,97.55 L51.519,85.167 L78.657,85.167 L78.657,120.04 L87.345,120.04 L87.345,105.836 L87.635,105.836 C89.755,96.503 99.135,92.567 107.894,92.224 C116.875,92.305 125.759,96.728 128.153,105.836 L128.181,105.836 L128.181,105.94 C128.476,107.063 128.324,106.331 128.443,108.166 C128.324,110.001 128.476,109.269 128.181,110.392 L128.181,165.519 L3.585,165.519 z" fill="#79C4F5"/>
      <path d="M162.427,42.98 C181.196,42.98 196.411,58.195 196.411,76.964 C196.482,81.325 195.513,85.578 193.826,89.573 L193.843,89.573 L162.484,165.519 L132.706,93.401 C129.6,88.496 128.729,82.622 128.443,76.964 C128.444,58.195 143.659,42.98 162.427,42.98 z" fill="#FF726A"/>
    </g>
  </g>
</svg>
