<?xml version="1.0" encoding="UTF-8"?>
<!DOCTYPE svg PUBLIC "-//W3C//DTD SVG 1.1//EN" "http://www.w3.org/Graphics/SVG/1.1/DTD/svg11.dtd">
<svg version="1.1" xmlns="http://www.w3.org/2000/svg" xmlns:xlink="http://www.w3.org/1999/xlink" x="0" y="0" width="150" height="150" viewBox="0, 0, 150, 150">
  <g id="Layer_1">
    <path d="M0,0 L150,0 L150,150 L0,150 L0,0 z" fill="#FFFFFF"/>
    <g>
      <path d="M131.363,91.035 Q131.363,102.09 123.824,108.77 Q116.676,115.176 105.465,115.176 Q94.215,115.176 87.418,111.309 Q78.902,106.504 78.902,96.309 L78.902,95.84 L88.785,95.84 L88.785,96.309 Q88.785,107.559 105.035,107.559 Q112.613,107.559 116.891,103.281 Q121.168,99.004 121.168,91.66 Q121.168,83.652 114.645,79.746 Q109.137,76.426 99.918,76.426 L93.863,76.426 L93.863,68.887 L100.973,68.887 Q107.418,68.887 112.574,64.863 Q118.082,60.488 118.082,53.965 Q118.082,48.496 114.215,45.371 Q110.543,42.402 104.762,42.402 Q98.629,42.402 94.723,44.59 Q90.23,47.09 90.23,51.621 L90.23,52.129 L81.051,52.129 L81.051,51.621 Q81.051,42.832 88.355,38.496 Q94.605,34.824 105.23,34.824 Q114.449,34.824 120.816,39.043 Q128.199,43.926 128.199,52.754 Q128.199,59.98 123.902,65.02 Q119.918,69.707 112.965,71.699 Q120.074,72.637 125.309,77.363 Q131.363,82.871 131.363,91.035 z" fill="#42339A"/>
      <path d="M56.176,80.801 L30.863,112.871 L18.637,112.871 L44.887,80.449 Q36.059,79.043 30.238,72.793 Q24.184,66.23 24.184,57.246 Q24.184,47.051 30.629,41.816 Q36.488,37.09 46.605,37.09 L74.379,37.09 L74.379,112.871 L64.535,112.871 L64.535,80.801 z M64.535,73.223 L64.535,44.707 L49.809,44.707 Q34.457,44.707 34.457,57.949 Q34.457,65.449 38.988,69.473 Q43.246,73.223 50.551,73.223 z" fill="#42339A"/>
    </g>
  </g>
</svg>
