<?xml version="1.0" encoding="UTF-8"?>
<!DOCTYPE svg PUBLIC "-//W3C//DTD SVG 1.1//EN" "http://www.w3.org/Graphics/SVG/1.1/DTD/svg11.dtd">
<svg version="1.1" xmlns="http://www.w3.org/2000/svg" xmlns:xlink="http://www.w3.org/1999/xlink" x="0" y="0" width="100" height="100" viewBox="0, 0, 100, 100">
  <g id="Layer_1">
    <g>
      <path d="M56.92,52.595 L43.08,52.595 C33.299,52.595 25.38,60.447 25.38,70.228 L25.38,78.945 C25.38,80.409 26.578,81.606 28.042,81.606 L71.958,81.606 C73.422,81.606 74.62,80.409 74.62,78.945 L74.62,70.228 C74.62,60.447 66.701,52.595 56.92,52.595 z" fill="#FFFFFF"/>
      <path d="M64.971,33.365 C64.971,41.634 58.269,48.337 50,48.337 C41.731,48.337 35.029,41.634 35.029,33.365 C35.029,25.097 41.731,18.394 50,18.394 C58.269,18.394 64.971,25.097 64.971,33.365 z" fill="#FFFFFF"/>
    </g>
  </g>
</svg>
